<?xml version="1.0" encoding="UTF-8" standalone="no"?>
<!DOCTYPE svg PUBLIC "-//W3C//DTD SVG 1.1//EN" "http://www.w3.org/Graphics/SVG/1.1/DTD/svg11.dtd">
<svg width="100%" height="100%" viewBox="0 0 2134 2134" version="1.1" xmlns="http://www.w3.org/2000/svg" xmlns:xlink="http://www.w3.org/1999/xlink" xml:space="preserve" xmlns:serif="http://www.serif.com/" style="fill-rule:evenodd;clip-rule:evenodd;stroke-linecap:round;stroke-linejoin:round;">
    <clipPath id="_clip1">
        <path id="rect11" d="M2133.333,479.167l0,1175c0,264.459 -214.707,479.167 -479.167,479.167l-1175,0c-264.459,0 -479.167,-214.707 -479.167,-479.167l0,-1175c0,-264.459 214.707,-479.167 479.167,-479.167l1175,0c264.459,0 479.167,214.707 479.167,479.167Z"/>
    </clipPath>
    <g clip-path="url(#_clip1)">
        <rect x="0" y="0" width="2133.333" height="2133.333" style="fill:url(#_Radial2);"/>
    </g>
    <clipPath id="_clip3">
        <path id="polygon11" d="M2133.333,479.167l0,1175c0,264.459 -214.707,479.167 -479.167,479.167l-1175,0c-264.459,0 -479.167,-214.707 -479.167,-479.167l0,-1175c0,-264.459 214.707,-479.167 479.167,-479.167l1175,0c264.459,0 479.167,214.707 479.167,479.167Z"/>
    </clipPath>
    <g clip-path="url(#_clip3)">
        <path d="M2216.667,1191.667l0,1025l-2300,0l800,-766.667l633.333,583.333l866.667,-841.667Z" style="fill:url(#_Linear4);fill-rule:nonzero;"/>
    </g>
    <clipPath id="_clip5">
        <path id="polyline11" d="M2133.333,479.167l0,1175c0,264.459 -214.707,479.167 -479.167,479.167l-1175,0c-264.459,0 -479.167,-214.707 -479.167,-479.167l0,-1175c0,-264.459 214.707,-479.167 479.167,-479.167l1175,0c264.459,0 479.167,214.707 479.167,479.167Z"/>
    </clipPath>
    <g clip-path="url(#_clip5)">
        <path d="M-83.333,2258.333l800,-766.667l633.333,583.333l866.667,-841.667" style="fill:none;fill-rule:nonzero;stroke:#0294c6;stroke-width:179.17px;"/>
    </g>
    <clipPath id="_clip6">
        <path id="polyline12" d="M2133.333,479.167l0,1175c0,264.459 -214.707,479.167 -479.167,479.167l-1175,0c-264.459,0 -479.167,-214.707 -479.167,-479.167l0,-1175c0,-264.459 214.707,-479.167 479.167,-479.167l1175,0c264.459,0 479.167,214.707 479.167,479.167Z"/>
    </clipPath>
    <g clip-path="url(#_clip6)">
        <path d="M-83.333,2187.5l800,-766.667l633.333,583.333l866.667,-841.667" style="fill:none;fill-rule:nonzero;stroke:#ffe98f;stroke-width:175px;"/>
    </g>
    <clipPath id="_clip7">
        <path id="polyline13" d="M2133.333,479.167l0,1175c0,264.459 -214.707,479.167 -479.167,479.167l-1175,0c-264.459,0 -479.167,-214.707 -479.167,-479.167l0,-1175c0,-264.459 214.707,-479.167 479.167,-479.167l1175,0c264.459,0 479.167,214.707 479.167,479.167Z"/>
    </clipPath>
    <g clip-path="url(#_clip7)">
        <path d="M-83.333,2245.833l800,-766.667l633.333,583.333l866.667,-841.667" style="fill:none;fill-rule:nonzero;stroke:#c8951b;stroke-width:175px;"/>
    </g>
    <clipPath id="_clip8">
        <path id="polyline14" d="M2133.333,479.167l0,1175c0,264.459 -214.707,479.167 -479.167,479.167l-1175,0c-264.459,0 -479.167,-214.707 -479.167,-479.167l0,-1175c0,-264.459 214.707,-479.167 479.167,-479.167l1175,0c264.459,0 479.167,214.707 479.167,479.167Z"/>
    </clipPath>
    <g clip-path="url(#_clip8)">
        <path d="M-83.333,2216.667l800,-766.667l633.333,583.333l866.667,-841.667" style="fill:none;fill-rule:nonzero;stroke:url(#_Linear9);stroke-width:175px;"/>
    </g>
    <g id="text14">
        <g transform="matrix(95.662888,0,0,95.662888,287.638651,1160.730953)">
            <g>
                <g transform="matrix(11.6149,0,0,11.6149,0,0)">
                    <path d="M0.183,-0l0,-0.154l0.17,0c0.04,0 0.075,-0.008 0.104,-0.023c0.03,-0.015 0.052,-0.038 0.068,-0.069c0.016,-0.03 0.024,-0.067 0.024,-0.11c0,-0.043 -0.008,-0.079 -0.025,-0.109c-0.016,-0.03 -0.039,-0.052 -0.069,-0.068c-0.029,-0.015 -0.064,-0.023 -0.104,-0.023l-0.178,0l0,-0.154l0.179,0c0.055,0 0.105,0.008 0.151,0.025c0.046,0.017 0.086,0.041 0.12,0.073c0.034,0.031 0.06,0.069 0.079,0.112c0.019,0.043 0.028,0.092 0.028,0.145c-0,0.053 -0.009,0.101 -0.028,0.144c-0.019,0.043 -0.045,0.081 -0.079,0.112c-0.034,0.031 -0.074,0.056 -0.12,0.073c-0.046,0.017 -0.096,0.025 -0.15,0.025l-0.173,-0Zm-0.12,-0l0,-0.709l0.179,0l0,0.709l-0.179,-0Z" style="fill-opacity:0.2;fill-rule:nonzero;"/>
                </g>
                <g transform="matrix(11.6149,0,0,11.6149,8.258194,0)">
                    <path d="M0.235,-0l0,-0.704l0.179,0l0,0.704l-0.179,-0Zm-0.217,-0.555l-0,-0.154l0.613,0l0,0.154l-0.613,0Z" style="fill-opacity:0.2;fill-rule:nonzero;"/>
                </g>
            </g>
        </g>
        <g transform="matrix(95.662888,0,0,95.662888,287.497653,1131.564286)">
            <g>
                <g transform="matrix(11.6149,0,0,11.6149,0,0)">
                    <path d="M0.183,-0l0,-0.154l0.17,0c0.04,0 0.075,-0.008 0.104,-0.023c0.03,-0.015 0.052,-0.038 0.068,-0.069c0.016,-0.03 0.024,-0.067 0.024,-0.11c0,-0.043 -0.008,-0.079 -0.025,-0.109c-0.016,-0.03 -0.039,-0.052 -0.069,-0.068c-0.029,-0.015 -0.064,-0.023 -0.104,-0.023l-0.178,0l0,-0.154l0.179,0c0.055,0 0.105,0.008 0.151,0.025c0.046,0.017 0.086,0.041 0.12,0.073c0.034,0.031 0.06,0.069 0.079,0.112c0.019,0.043 0.028,0.092 0.028,0.145c-0,0.053 -0.009,0.101 -0.028,0.144c-0.019,0.043 -0.045,0.081 -0.079,0.112c-0.034,0.031 -0.074,0.056 -0.12,0.073c-0.046,0.017 -0.096,0.025 -0.15,0.025l-0.173,-0Zm-0.12,-0l0,-0.709l0.179,0l0,0.709l-0.179,-0Z" style="fill:url(#_Linear10);fill-rule:nonzero;"/>
                </g>
                <g transform="matrix(11.6149,0,0,11.6149,8.258194,0)">
                    <path d="M0.235,-0l0,-0.704l0.179,0l0,0.704l-0.179,-0Zm-0.217,-0.555l-0,-0.154l0.613,0l0,0.154l-0.613,0Z" style="fill:url(#_Linear11);fill-rule:nonzero;"/>
                </g>
            </g>
        </g>
    </g>
    <defs>
        <radialGradient id="_Radial2" cx="0" cy="0" r="1" gradientUnits="userSpaceOnUse" gradientTransform="matrix(2453.333292,0,0,2453.333292,170.666663,170.666663)"><stop offset="0" style="stop-color:#50b2df;stop-opacity:1"/><stop offset="0.55" style="stop-color:#02a1d7;stop-opacity:1"/><stop offset="1" style="stop-color:#016d92;stop-opacity:1"/></radialGradient>
        <linearGradient id="_Linear4" x1="0" y1="0" x2="1" y2="0" gradientUnits="userSpaceOnUse" gradientTransform="matrix(0,1025.000027,-1025.000027,0,-83.333333,1191.666655)"><stop offset="0" style="stop-color:#8dcdea;stop-opacity:1"/><stop offset="1" style="stop-color:#50b2df;stop-opacity:0.5"/></linearGradient>
        <linearGradient id="_Linear9" x1="0" y1="0" x2="1" y2="0" gradientUnits="userSpaceOnUse" gradientTransform="matrix(1979.749492,-856.28784,856.28784,1979.749492,153.583783,1989.621138)"><stop offset="0" style="stop-color:#e3a81f;stop-opacity:1"/><stop offset="0.55" style="stop-color:#ffd13e;stop-opacity:1"/><stop offset="1" style="stop-color:#ffe07a;stop-opacity:1"/></linearGradient>
        <linearGradient id="_Linear10" x1="0" y1="0" x2="1" y2="0" gradientUnits="userSpaceOnUse" gradientTransform="matrix(0,0.701248,-0.701248,0,0.191251,-0.703405)"><stop offset="0" style="stop-color:#fff;stop-opacity:1"/><stop offset="0.1" style="stop-color:#fff;stop-opacity:1"/><stop offset="1" style="stop-color:#fff;stop-opacity:0.6"/></linearGradient>
        <linearGradient id="_Linear11" x1="0" y1="0" x2="1" y2="0" gradientUnits="userSpaceOnUse" gradientTransform="matrix(0,0.701248,-0.701248,0,-0.519749,-0.703405)"><stop offset="0" style="stop-color:#fff;stop-opacity:1"/><stop offset="0.1" style="stop-color:#fff;stop-opacity:1"/><stop offset="1" style="stop-color:#fff;stop-opacity:0.6"/></linearGradient>
    </defs>
</svg>
