<?xml version="1.0" encoding="UTF-8" standalone="no"?>
<!DOCTYPE svg PUBLIC "-//W3C//DTD SVG 1.1//EN" "http://www.w3.org/Graphics/SVG/1.1/DTD/svg11.dtd">
<svg width="100%" height="100%" viewBox="0 0 2134 2134" version="1.1" xmlns="http://www.w3.org/2000/svg" xmlns:xlink="http://www.w3.org/1999/xlink" xml:space="preserve" xmlns:serif="http://www.serif.com/" style="fill-rule:evenodd;clip-rule:evenodd;stroke-linecap:round;stroke-linejoin:round;">
    <g>
        <clipPath id="_clip1">
            <path d="M2133.333,479.167l0,1175c0,264.459 -214.707,479.167 -479.167,479.167l-1175,0c-264.459,0 -479.167,-214.707 -479.167,-479.167l0,-1175c0,-264.459 214.707,-479.167 479.167,-479.167l1175,0c264.459,0 479.167,214.707 479.167,479.167Z"/>
        </clipPath>
        <g clip-path="url(#_clip1)">
            <rect x="0" y="0" width="2133.333" height="2133.333" style="fill:url(#_Radial2);"/>
            <path d="M-83.333,2216.667l800,-766.667l633.333,583.333l866.667,-841.667l0,1025l-2300,0Z" style="fill:url(#_Linear3);fill-rule:nonzero;"/>
            <path d="M-83.333,2258.333l800,-766.667l633.333,583.333l866.667,-841.667" style="fill:none;fill-rule:nonzero;stroke:#546269;stroke-width:179.17px;"/>
            <path d="M-83.333,2187.5l800,-766.667l633.333,583.333l866.667,-841.667" style="fill:none;fill-rule:nonzero;stroke:#ffe98f;stroke-width:175px;"/>
            <path d="M-83.333,2245.833l800,-766.667l633.333,583.333l866.667,-841.667" style="fill:none;fill-rule:nonzero;stroke:#c8951b;stroke-width:175px;"/>
            <path d="M-83.333,2216.667l800,-766.667l633.333,583.333l866.667,-841.667" style="fill:none;fill-rule:nonzero;stroke:url(#_Linear4);stroke-width:175px;"/>
        </g>
    </g>
    <g id="text14">
        <g transform="matrix(95.662888,0,0,95.662888,326.939447,1161.947111)">
            <g>
                <g transform="matrix(11.6149,0,0,11.6149,0,0)">
                    <path d="M0.063,-0l0,-0.709l0.125,0l0.054,0.145l0,0.564l-0.179,-0Zm0.489,-0l-0.415,-0.526l0.051,-0.183l0.414,0.526l-0.051,0.183Zm0,-0l-0.046,-0.149l0,-0.56l0.179,0l0,0.709l-0.132,-0Z" style="fill-opacity:0.2;fill-rule:nonzero;"/>
                </g>
                <g transform="matrix(11.6149,0,0,11.6149,8.104296,0)">
                    <path d="M0.235,-0l0,-0.704l0.179,0l0,0.704l-0.179,-0Zm-0.217,-0.555l-0,-0.154l0.613,0l0,0.154l-0.613,0Z" style="fill-opacity:0.2;fill-rule:nonzero;"/>
                </g>
            </g>
        </g>
        <g transform="matrix(95.662888,0,0,95.662888,326.798449,1132.780444)">
            <g>
                <g transform="matrix(11.6149,0,0,11.6149,0,0)">
                    <path d="M0.063,-0l0,-0.709l0.125,0l0.054,0.145l0,0.564l-0.179,-0Zm0.489,-0l-0.415,-0.526l0.051,-0.183l0.414,0.526l-0.051,0.183Zm0,-0l-0.046,-0.149l0,-0.56l0.179,0l0,0.709l-0.132,-0Z" style="fill:url(#_Linear5);fill-rule:nonzero;"/>
                </g>
                <g transform="matrix(11.6149,0,0,11.6149,8.104296,0)">
                    <path d="M0.235,-0l0,-0.704l0.179,0l0,0.704l-0.179,-0Zm-0.217,-0.555l-0,-0.154l0.613,0l0,0.154l-0.613,0Z" style="fill:url(#_Linear6);fill-rule:nonzero;"/>
                </g>
            </g>
        </g>
    </g>
    <defs>
        <radialGradient id="_Radial2" cx="0" cy="0" r="1" gradientUnits="userSpaceOnUse" gradientTransform="matrix(2453.333333,0,0,2453.333333,170.666667,170.666667)"><stop offset="0" style="stop-color:#838f95;stop-opacity:1"/><stop offset="0.55" style="stop-color:#5b6b72;stop-opacity:1"/><stop offset="1" style="stop-color:#3f4c52;stop-opacity:1"/></radialGradient>
        <linearGradient id="_Linear3" x1="0" y1="0" x2="1" y2="0" gradientUnits="userSpaceOnUse" gradientTransform="matrix(0,1025,-1025,0,-83.333333,1191.666667)"><stop offset="0" style="stop-color:#aeb6ba;stop-opacity:1"/><stop offset="1" style="stop-color:#838f95;stop-opacity:0.5"/></linearGradient>
        <linearGradient id="_Linear4" x1="0" y1="0" x2="1" y2="0" gradientUnits="userSpaceOnUse" gradientTransform="matrix(2300,-820,820,2300,-83.333333,2216.666667)"><stop offset="0" style="stop-color:#e3a81f;stop-opacity:1"/><stop offset="0.55" style="stop-color:#ffd13e;stop-opacity:1"/><stop offset="1" style="stop-color:#ffe07a;stop-opacity:1"/></linearGradient>
        <linearGradient id="_Linear5" x1="0" y1="0" x2="1" y2="0" gradientUnits="userSpaceOnUse" gradientTransform="matrix(0,0.701248,-0.701248,0,0.191251,-0.703405)"><stop offset="0" style="stop-color:#fff;stop-opacity:1"/><stop offset="0.1" style="stop-color:#fff;stop-opacity:1"/><stop offset="1" style="stop-color:#fff;stop-opacity:0.6"/></linearGradient>
        <linearGradient id="_Linear6" x1="0" y1="0" x2="1" y2="0" gradientUnits="userSpaceOnUse" gradientTransform="matrix(0,0.701248,-0.701248,0,-0.506499,-0.703405)"><stop offset="0" style="stop-color:#fff;stop-opacity:1"/><stop offset="0.1" style="stop-color:#fff;stop-opacity:1"/><stop offset="1" style="stop-color:#fff;stop-opacity:0.6"/></linearGradient>
    </defs>
</svg>
