<?xml version="1.0" encoding="UTF-8" standalone="no"?>
<!DOCTYPE svg PUBLIC "-//W3C//DTD SVG 1.1//EN" "http://www.w3.org/Graphics/SVG/1.1/DTD/svg11.dtd">
<svg width="100%" height="100%" viewBox="0 0 2907 1593" version="1.1" xmlns="http://www.w3.org/2000/svg" xmlns:xlink="http://www.w3.org/1999/xlink" xml:space="preserve" xmlns:serif="http://www.serif.com/" style="fill-rule:evenodd;clip-rule:evenodd;stroke-linejoin:round;stroke-miterlimit:2;">
    <path d="M252.354,240.246L48,444.6L252.354,648.954L456.708,444.6L252.354,240.246Z" style="fill:#bbbcc1;"/>
    <path d="M734.062,240.246L529.708,444.6L734.062,648.954L938.42,444.6L734.062,240.246Z" style="fill:#bbbcc1;"/>
    <path d="M974.8,480.6L770.45,684.954L974.8,889.31L1179.16,684.954L974.8,480.6Z" style="fill:#bbbcc1;"/>
    <path d="M1453.8,480.6L1249.45,684.954L1453.8,889.31L1658.16,684.954L1453.8,480.6Z" style="fill:#bbbcc1;"/>
    <path d="M1932.51,480.6L1728.16,684.954L1932.51,889.31L2136.87,684.954L1932.51,480.6Z" style="fill:#bbbcc1;"/>
    <path d="M973.8,0L769.45,204.354L973.8,408.708L1178.16,204.354L973.8,0Z" style="fill:#bbbcc1;"/>
    <path d="M1453.8,0L1249.45,204.354L1453.8,408.708L1658.16,204.354L1453.8,0Z" style="fill:#bbbcc1;"/>
    <path d="M1932.51,0L1728.16,204.354L1932.51,408.708L2136.87,204.354L1932.51,0Z" style="fill:#bbbcc1;"/>
    <path d="M1213.44,240.246L1009.09,444.6L1213.44,648.954L1417.79,444.6L1213.44,240.246Z" style="fill:#bbbcc1;"/>
    <path d="M1692.82,240.246L1488.47,444.6L1692.82,648.954L1897.17,444.6L1692.82,240.246Z" style="fill:#bbbcc1;"/>
    <path d="M2172.2,240.246L1967.85,444.6L2172.2,648.954L2376.55,444.6L2172.2,240.246Z" style="fill:#bbbcc1;"/>
    <path d="M2654.95,240.246L2450.6,444.6L2654.95,648.954L2859.31,444.6L2654.95,240.246Z" style="fill:#bbbcc1;"/>
    <path d="M2810.89,425.85L2423.6,425.8L2172.2,174.091L1932.51,415.03L1693.16,175.351L1213.44,657.914L974.8,416.729L734.062,657.85L502.379,425.85L96,425.85L96,463.35L484.208,463.35L734.062,712.35L973.75,473.755L1213.44,712.302L1692.82,233.594L1932.51,473.991L2172.2,233.6L2402.58,463.3L2810.89,463.35L2810.89,425.85Z" style="fill:#fdd34f;"/>
    <path d="M2819.49,471.951L2399.02,471.9L2172.22,245.762L1932.51,486.172L1692.81,245.761L1213.45,724.446L973.75,485.889L734.058,724.488L480.654,471.95L87.4,471.95L87.4,417.25L505.945,417.25L734.061,645.679L974.83,404.529L1213.46,645.702L1693.14,163.167L1932.5,402.848L2172.19,161.91L2427.17,417.2L2819.49,417.251L2819.49,471.951ZM2810.89,425.85L2423.6,425.8L2172.2,174.091L1932.51,415.03L1693.16,175.351L1213.44,657.914L974.8,416.729L734.062,657.85L502.379,425.85L96,425.85L96,463.35L484.208,463.35L734.062,712.35L973.75,473.755L1213.44,712.302L1692.82,233.594L1932.51,473.991L2172.2,233.6L2402.58,463.3L2810.89,463.35L2810.89,425.85Z" style="fill:#fff;"/>
    <rect x="0" y="396.6" width="96" height="96" style="fill:#fff;"/>
    <rect x="2810.89" y="396.6" width="96" height="96" style="fill:#fff;"/>
    <path id="path39" d="M83,1252.6L203,1252.6L203,1592.6L83,1592.6C83.133,1479.13 83.133,1365.8 83,1252.6Z" style="fill:#fff;fill-rule:nonzero;"/>
    <path id="path41" d="M821.8,1252.5L1076.6,1252.5L1076.6,1324.7L941.3,1324.7L941.3,1384.1L1065.4,1384.1L1065.4,1455.8L941.4,1455.8L941.4,1520.3L1079,1520.3L1079,1592L821.8,1592C821.73,1478.93 821.73,1365.77 821.8,1252.5Z" style="fill:#fff;fill-rule:nonzero;"/>
    <path id="path43" d="M1662.9,1252.6L1994.8,1252.6L1994.8,1338.2L1888.4,1338.2L1888.4,1592.3L1769.3,1592.3L1769.3,1338.2L1663,1338.2C1662.9,1309.6 1663,1281.1 1662.9,1252.6Z" style="fill:#fff;fill-rule:nonzero;"/>
    <path id="path45" d="M2590.4,1252.5L2838.9,1252.5L2838.9,1324.7L2710,1324.7L2710,1385.7L2831.3,1385.7L2831.3,1457.8L2710,1457.8L2710,1592L2590.4,1592L2590.4,1252.5Z" style="fill:#fff;fill-rule:nonzero;"/>
</svg>
