<?xml version="1.0" encoding="UTF-8" standalone="no"?>
<!DOCTYPE svg PUBLIC "-//W3C//DTD SVG 1.1//EN" "http://www.w3.org/Graphics/SVG/1.1/DTD/svg11.dtd">
<svg width="100%" height="100%" viewBox="0 0 2907 1593" version="1.1" xmlns="http://www.w3.org/2000/svg" xmlns:xlink="http://www.w3.org/1999/xlink" xml:space="preserve" xmlns:serif="http://www.serif.com/" style="fill-rule:evenodd;clip-rule:evenodd;stroke-linejoin:round;stroke-miterlimit:2;">
    <path d="M429.358,471.95L252.354,648.954L48,444.6L252.354,240.246L429.358,417.25L87.4,417.25L87.4,471.95L429.358,471.95ZM531.484,442.824L734.062,240.246L936.62,442.8L734.061,645.679L531.484,442.824ZM972.228,407.136L769.45,204.354L973.8,0L1178.16,204.354L976.396,406.112L974.83,404.529L972.228,407.136ZM1011.8,441.891L1213.44,240.246L1415.58,442.384L1213.46,645.702L1011.8,441.891ZM1451.42,406.327L1249.45,204.354L1453.8,0L1655.17,201.364L1451.42,406.327ZM1731.22,201.296L1932.51,0L2133.41,200.893L1932.5,402.848L1731.22,201.296ZM2477.99,417.207L2654.95,240.246L2859.31,444.6L2654.95,648.954L2477.91,471.91L2819.49,471.951L2819.49,417.251L2477.99,417.207ZM2374.1,447.051L2172.2,648.954L1970.91,447.66L2172.22,245.762L2374.1,447.051ZM1935.29,483.382L2136.87,684.954L1932.51,889.31L1728.16,684.954L1929.73,483.382L1932.51,486.172L1935.29,483.382ZM1894.11,447.659L1692.82,648.954L1491.08,447.208L1692.81,245.761L1894.11,447.659ZM1455.72,482.519L1658.16,684.954L1453.8,889.31L1251.22,686.727L1455.72,482.519ZM1176.47,687.643L974.8,889.31L772.108,686.612L973.75,485.889L1176.47,687.643ZM437.958,425.85L456.708,444.6L437.958,463.35L96,463.35L96,425.85L437.958,425.85ZM2469.31,463.308L2450.6,444.6L2469.39,425.806L2810.89,425.85L2810.89,463.35L2469.31,463.308Z" style="fill:white;"/>
    <path d="M2810.89,425.85L2423.6,425.8L2172.2,174.091L1932.51,415.03L1693.16,175.351L1213.44,657.914L974.8,416.729L734.062,657.85L502.379,425.85L96,425.85L96,463.35L484.208,463.35L734.062,712.35L973.75,473.755L1213.44,712.302L1692.82,233.594L1932.51,473.991L2172.2,233.6L2402.58,463.3L2810.89,463.35L2810.89,425.85Z" style="fill:rgb(253,211,79);"/>
    <g>
        <rect x="0" y="396.6" width="96" height="96" style="fill:white;"/>
    </g>
    <g>
        <rect x="2810.89" y="396.6" width="96" height="96" style="fill:white;"/>
    </g>
    <path id="path39" d="M83,1252.6L203,1252.6L203,1592.6L83,1592.6C83.133,1479.13 83.133,1365.8 83,1252.6Z" style="fill:white;fill-rule:nonzero;"/>
    <path id="path41" d="M821.8,1252.5L1076.6,1252.5L1076.6,1324.7L941.3,1324.7L941.3,1384.1L1065.4,1384.1L1065.4,1455.8L941.4,1455.8L941.4,1520.3L1079,1520.3L1079,1592L821.8,1592C821.73,1478.93 821.73,1365.77 821.8,1252.5Z" style="fill:white;fill-rule:nonzero;"/>
    <path id="path43" d="M1662.9,1252.6L1994.8,1252.6L1994.8,1338.2L1888.4,1338.2L1888.4,1592.3L1769.3,1592.3L1769.3,1338.2L1663,1338.2C1662.9,1309.6 1663,1281.1 1662.9,1252.6Z" style="fill:white;fill-rule:nonzero;"/>
    <path id="path45" d="M2590.4,1252.5L2838.9,1252.5L2838.9,1324.7L2710,1324.7L2710,1385.7L2831.3,1385.7L2831.3,1457.8L2710,1457.8L2710,1592L2590.4,1592L2590.4,1252.5Z" style="fill:white;fill-rule:nonzero;"/>
</svg>
