<?xml version="1.0" encoding="UTF-8" standalone="no"?>
<!DOCTYPE svg PUBLIC "-//W3C//DTD SVG 1.1//EN" "http://www.w3.org/Graphics/SVG/1.1/DTD/svg11.dtd">
<svg width="100%" height="100%" viewBox="0 0 2998 2998" version="1.1" xmlns="http://www.w3.org/2000/svg" xmlns:xlink="http://www.w3.org/1999/xlink" xml:space="preserve" xmlns:serif="http://www.serif.com/" style="fill-rule:evenodd;clip-rule:evenodd;stroke-linejoin:round;stroke-miterlimit:2;">
    <g>
        <path d="M252.354,942.896L48,1147.25L252.354,1351.6L456.708,1147.25L252.354,942.896Z" style="fill:#bbbcc1;"/>
    </g>
    <g>
        <path d="M734.062,942.896L529.708,1147.25L734.062,1351.6L938.42,1147.25L734.062,942.896Z" style="fill:#bbbcc1;"/>
    </g>
    <g>
        <path d="M974.8,1183.25L770.45,1387.6L974.8,1591.96L1179.16,1387.6L974.8,1183.25Z" style="fill:#bbbcc1;"/>
    </g>
    <g>
        <path d="M1453.8,1183.25L1249.45,1387.6L1453.8,1591.96L1658.16,1387.6L1453.8,1183.25Z" style="fill:#bbbcc1;"/>
    </g>
    <g>
        <path d="M1932.51,1183.25L1728.16,1387.6L1932.51,1591.96L2136.87,1387.6L1932.51,1183.25Z" style="fill:#bbbcc1;"/>
    </g>
    <g>
        <path d="M973.8,702.65L769.45,907.004L973.8,1111.36L1178.16,907.004L973.8,702.65Z" style="fill:#bbbcc1;"/>
    </g>
    <g>
        <path d="M1453.8,702.65L1249.45,907.004L1453.8,1111.36L1658.16,907.004L1453.8,702.65Z" style="fill:#bbbcc1;"/>
    </g>
    <g>
        <path d="M1932.51,702.65L1728.16,907.004L1932.51,1111.36L2136.87,907.004L1932.51,702.65Z" style="fill:#bbbcc1;"/>
    </g>
    <g>
        <path d="M1213.44,942.896L1009.09,1147.25L1213.44,1351.6L1417.79,1147.25L1213.44,942.896Z" style="fill:#bbbcc1;"/>
    </g>
    <g>
        <path d="M1692.82,942.896L1488.47,1147.25L1692.82,1351.6L1897.17,1147.25L1692.82,942.896Z" style="fill:#bbbcc1;"/>
    </g>
    <g>
        <path d="M2172.2,942.896L1967.85,1147.25L2172.2,1351.6L2376.55,1147.25L2172.2,942.896Z" style="fill:#bbbcc1;"/>
    </g>
    <g>
        <path d="M2654.95,942.896L2450.6,1147.25L2654.95,1351.6L2859.31,1147.25L2654.95,942.896Z" style="fill:#bbbcc1;"/>
    </g>
    <path d="M2810.89,1128.5L2423.6,1128.45L2172.2,876.741L1932.51,1117.68L1693.16,878.001L1213.44,1360.56L974.8,1119.38L734.062,1360.5L502.379,1128.5L96,1128.5L96,1166L484.208,1166L734.062,1415L973.75,1176.4L1213.44,1414.95L1692.82,936.244L1932.51,1176.64L2172.2,936.25L2402.58,1165.95L2810.89,1166L2810.89,1128.5Z" style="fill:#fdd34f;"/>
    <path d="M2819.49,1174.6L2399.02,1174.55L2172.22,948.412L1932.51,1188.82L1692.81,948.411L1213.45,1427.1L973.75,1188.54L734.058,1427.14L480.654,1174.6L87.4,1174.6L87.4,1119.9L505.945,1119.9L734.061,1348.33L974.83,1107.18L1213.46,1348.35L1693.14,865.817L1932.5,1105.5L2172.19,864.56L2427.17,1119.85L2819.49,1119.9L2819.49,1174.6ZM2810.89,1128.5L2423.6,1128.45L2172.2,876.741L1932.51,1117.68L1693.16,878.001L1213.44,1360.56L974.8,1119.38L734.062,1360.5L502.379,1128.5L96,1128.5L96,1166L484.208,1166L734.062,1415L973.75,1176.4L1213.44,1414.95L1692.82,936.244L1932.51,1176.64L2172.2,936.25L2402.58,1165.95L2810.89,1166L2810.89,1128.5Z" style="fill:#221e1f;"/>
    <g>
        <rect x="0" y="1099.25" width="96" height="96" style="fill:#221e1f;"/>
    </g>
    <g>
        <rect x="2810.89" y="1099.25" width="96" height="96" style="fill:#221e1f;"/>
    </g>
    <path id="path37" d="M2891,1987.45C2899.14,1965.97 2919.83,1951.68 2942.81,1951.68C2971.01,1951.68 2994.93,1973.21 2997.9,2001.25L2997.9,2013.15C2994.76,2041.09 2970.86,2062.45 2942.75,2062.45C2925.03,2062.45 2908.34,2053.97 2897.9,2039.65C2886.86,2024.63 2884.15,2005 2890.7,1987.55M2933.3,1963.75C2912.76,1967.9 2897.86,1986.12 2897.86,2007.07C2897.86,2031.32 2917.81,2051.27 2942.06,2051.27C2955.89,2051.27 2968.95,2044.78 2977.3,2033.75C2983.11,2026.07 2986.26,2016.7 2986.26,2007.07C2986.26,1982.83 2966.31,1962.87 2942.06,1962.87C2939.12,1962.87 2936.18,1963.17 2933.3,1963.75Z" style="fill:#221e1f;fill-rule:nonzero;"/>
    <path id="path39" d="M83,1955.25L203,1955.25L203,2295.25L83,2295.25C83.133,2181.78 83.133,2068.45 83,1955.25Z" style="fill:#221e1f;fill-rule:nonzero;"/>
    <path id="path41" d="M821.8,1955.15L1076.6,1955.15L1076.6,2027.35L941.3,2027.35L941.3,2086.75L1065.4,2086.75L1065.4,2158.45L941.4,2158.45L941.4,2222.95L1079,2222.95L1079,2294.65L821.8,2294.65C821.73,2181.58 821.73,2068.42 821.8,1955.15Z" style="fill:#221e1f;fill-rule:nonzero;"/>
    <path id="path43" d="M1662.9,1955.25L1994.8,1955.25L1994.8,2040.85L1888.4,2040.85L1888.4,2294.95L1769.3,2294.95L1769.3,2040.85L1663,2040.85C1662.9,2012.25 1663,1983.75 1662.9,1955.25Z" style="fill:#221e1f;fill-rule:nonzero;"/>
    <path id="path45" d="M2590.4,1955.15L2838.9,1955.15L2838.9,2027.35L2710,2027.35L2710,2088.35L2831.3,2088.35L2831.3,2160.45L2710,2160.45L2710,2294.65L2590.4,2294.65L2590.4,1955.15Z" style="fill:#221e1f;fill-rule:nonzero;"/>
    <path id="path47" d="M2917.9,1977.45L2948.7,1977.45C2949.05,1977.43 2949.39,1977.42 2949.74,1977.42C2958.68,1977.42 2966.04,1984.77 2966.04,1993.72C2966.04,1995.68 2965.69,1997.62 2965,1999.45C2962.74,2005.77 2956.6,2009.91 2949.9,2009.65C2956.5,2012.65 2959.9,2019.65 2963.1,2025.35C2965.1,2028.95 2967.5,2032.35 2969.2,2036.15L2954.1,2036.15C2950.74,2028.12 2946.04,2020.71 2940.2,2014.25C2937.24,2012.34 2933.68,2011.59 2930.2,2012.15L2930.2,2036.15C2926.07,2036.4 2921.93,2036.4 2917.8,2036.15L2917.8,1977.35M2930.3,1986.85L2930.3,2002.45C2936.57,2003.04 2942.89,2002.57 2949,2001.05C2951.45,1999.84 2953,1997.33 2953,1994.6C2953,1992.16 2951.75,1989.87 2949.7,1988.55C2943.35,1986.83 2936.74,1986.29 2930.2,1986.95L2930.3,1986.85Z" style="fill:#221e1f;fill-rule:nonzero;"/>
</svg>
