<?xml version="1.0" encoding="UTF-8" standalone="no"?>
<!DOCTYPE svg PUBLIC "-//W3C//DTD SVG 1.1//EN" "http://www.w3.org/Graphics/SVG/1.1/DTD/svg11.dtd">
<svg width="100%" height="100%" viewBox="0 0 3500 2000" version="1.1" xmlns="http://www.w3.org/2000/svg" xmlns:xlink="http://www.w3.org/1999/xlink" xml:space="preserve" xmlns:serif="http://www.serif.com/" style="fill-rule:evenodd;clip-rule:evenodd;stroke-linejoin:round;stroke-miterlimit:2;">
    <g id="Logo">
        <path d="M681.458,674.95L504.454,851.954L300.1,647.6L504.454,443.246L681.458,620.25L339.5,620.25L339.5,674.95L681.458,674.95ZM783.584,645.824L986.162,443.246L1188.72,645.8L986.161,848.679L783.584,645.824ZM1224.33,610.136L1021.55,407.354L1225.9,203L1430.26,407.354L1228.5,609.112L1226.93,607.529L1224.33,610.136ZM1263.9,644.891L1465.54,443.246L1667.67,645.384L1465.56,848.702L1263.9,644.891ZM1703.52,609.327L1501.55,407.354L1705.9,203L1907.27,404.364L1703.52,609.327ZM1983.32,404.296L2184.61,203L2385.51,403.893L2184.6,605.848L1983.32,404.296ZM2730.09,620.207L2907.05,443.246L3111.41,647.6L2907.05,851.954L2730.01,674.91L3071.59,674.951L3071.59,620.251L2730.09,620.207ZM2626.2,650.051L2424.3,851.954L2223.01,650.66L2424.32,448.762L2626.2,650.051ZM2187.39,686.382L2388.97,887.954L2184.61,1092.31L1980.26,887.954L2181.83,686.382L2184.61,689.172L2187.39,686.382ZM2146.21,650.659L1944.92,851.954L1743.18,650.208L1944.91,448.761L2146.21,650.659ZM1707.82,685.519L1910.26,887.954L1705.9,1092.31L1503.32,889.727L1707.82,685.519ZM1428.57,890.643L1226.9,1092.31L1024.21,889.612L1225.85,688.889L1428.57,890.643ZM690.058,628.85L708.808,647.6L690.058,666.35L348.1,666.35L348.1,628.85L690.058,628.85ZM2721.41,666.308L2702.7,647.6L2721.49,628.806L3062.99,628.85L3062.99,666.35L2721.41,666.308Z" style="fill:white;"/>
        <path d="M3062.99,628.85L2675.7,628.8L2424.3,377.091L2184.61,618.03L1945.26,378.351L1465.54,860.914L1226.9,619.729L986.162,860.85L754.479,628.85L348.1,628.85L348.1,666.35L736.308,666.35L986.162,915.35L1225.85,676.755L1465.54,915.302L1944.92,436.594L2184.61,676.991L2424.3,436.6L2654.68,666.3L3062.99,666.35L3062.99,628.85Z" style="fill:rgb(253,211,79);"/>
        <g>
            <rect x="252.1" y="599.6" width="96" height="96" style="fill:white;"/>
        </g>
        <g>
            <rect x="3062.99" y="599.6" width="96" height="96" style="fill:white;"/>
        </g>
    </g>
    <g id="Text">
        <path id="path39" d="M335.1,1455.6L455.1,1455.6L455.1,1795.6L335.1,1795.6C335.233,1682.13 335.233,1568.8 335.1,1455.6Z" style="fill:white;fill-rule:nonzero;"/>
        <path id="path41" d="M1073.9,1455.5L1328.7,1455.5L1328.7,1527.7L1193.4,1527.7L1193.4,1587.1L1317.5,1587.1L1317.5,1658.8L1193.5,1658.8L1193.5,1723.3L1331.1,1723.3L1331.1,1795L1073.9,1795C1073.83,1681.93 1073.83,1568.77 1073.9,1455.5Z" style="fill:white;fill-rule:nonzero;"/>
        <path id="path43" d="M1915,1455.6L2246.9,1455.6L2246.9,1541.2L2140.5,1541.2L2140.5,1795.3L2021.4,1795.3L2021.4,1541.2L1915.1,1541.2C1915,1512.6 1915.1,1484.1 1915,1455.6Z" style="fill:white;fill-rule:nonzero;"/>
        <path id="path45" d="M2842.5,1455.5L3091,1455.5L3091,1527.7L2962.1,1527.7L2962.1,1588.7L3083.4,1588.7L3083.4,1660.8L2962.1,1660.8L2962.1,1795L2842.5,1795L2842.5,1455.5Z" style="fill:white;fill-rule:nonzero;"/>
    </g>
</svg>
